<svg width="51" height="51" viewBox="0 0 51 51" fill="none" xmlns="http://www.w3.org/2000/svg">
<circle cx="25.5474" cy="25.5474" r="24.8107" fill="url(#paint0_linear_2001_103)" stroke="url(#paint1_linear_2001_103)" stroke-width="0.526653"/>
<path d="M26.485 28.3833C27.8155 28.3833 28.8941 27.3043 28.8941 25.9732C28.8941 24.6422 27.8155 23.5631 26.485 23.5631C25.1546 23.5631 24.076 24.6422 24.076 25.9732C24.076 27.3043 25.1546 28.3833 26.485 28.3833Z" fill="#00D8FF"/>
<path d="M26.4849 31.4944C23.1017 31.4944 20.1455 31.0959 17.9333 30.3374C16.4984 29.8477 15.2795 29.1947 14.4109 28.4506C13.4895 27.6632 13 26.8038 13 25.9733C13 24.3793 14.7468 22.819 17.6789 21.8012C20.0784 20.9658 23.2072 20.5001 26.4801 20.5001C29.6953 20.5001 32.781 20.9514 35.1661 21.7772C36.5625 22.2573 37.7383 22.8814 38.5733 23.5728C39.4803 24.3313 39.9602 25.1619 39.9602 25.9733C39.9602 27.6296 38.007 29.3052 34.8589 30.347C32.6323 31.0863 29.6569 31.4944 26.4849 31.4944ZM26.4849 21.6524C23.38 21.6524 20.3087 22.1037 18.0628 22.8862C15.3659 23.8272 14.1565 25.1139 14.1565 25.9733C14.1565 26.8663 15.457 28.273 18.3076 29.2476C20.3999 29.9629 23.2312 30.3422 26.4849 30.3422C29.537 30.3422 32.3827 29.9581 34.499 29.2524C37.4599 28.2682 38.8132 26.8615 38.8132 25.9733C38.8132 25.5172 38.4677 24.9795 37.8391 24.4562C37.1144 23.8512 36.0587 23.2991 34.7966 22.8622C32.5267 22.0845 29.5754 21.6524 26.4849 21.6524Z" fill="#00D8FF"/>
<path d="M21.0191 37.9852C20.5296 37.9852 20.0977 37.8796 19.733 37.6684C18.3557 36.8714 17.8758 34.5765 18.4565 31.5279C18.9316 29.0266 20.0929 26.0883 21.7293 23.2509C23.337 20.4664 25.2661 18.0178 27.1713 16.3615C28.2846 15.3917 29.4124 14.6811 30.4297 14.3067C31.5383 13.8986 32.4981 13.8986 33.1987 14.3019C34.6336 15.1276 35.1087 17.6626 34.4368 20.9081C33.9617 23.2125 32.8292 25.9923 31.2455 28.7433C29.5563 31.6719 27.7328 34.034 25.9716 35.5751C24.8294 36.5738 23.6537 37.3035 22.5787 37.6828C22.0173 37.8844 21.4894 37.9852 21.0191 37.9852ZM22.2236 23.539L22.7227 23.8271C21.1727 26.5156 20.0257 29.401 19.5842 31.7439C19.0516 34.5525 19.565 36.2425 20.3041 36.6698C20.4864 36.7754 20.7264 36.833 21.0191 36.833C21.9741 36.833 23.4761 36.2281 25.2133 34.711C26.8786 33.2563 28.6206 30.9902 30.2474 28.172C31.7734 25.5266 32.858 22.8669 33.3091 20.6824C33.9377 17.6242 33.3955 15.7518 32.6228 15.3053C32.2293 15.0796 31.5911 15.1084 30.8232 15.3917C29.9354 15.7182 28.9325 16.3567 27.9247 17.2353C26.1155 18.81 24.268 21.1529 22.7227 23.8319L22.2236 23.539Z" fill="#00D8FF"/>
<path d="M31.9511 38C30.6458 38 28.9902 37.2126 27.2626 35.7243C25.3334 34.0632 23.3707 31.5906 21.7295 28.7532C20.117 25.9687 18.9653 23.0737 18.4806 20.5915C18.1975 19.1416 18.1447 17.8117 18.327 16.7411C18.5286 15.5745 19.0037 14.7439 19.7091 14.3358C21.1392 13.5052 23.5722 14.3598 26.0485 16.5635C27.8049 18.1238 29.6476 20.4955 31.2361 23.2417C32.9301 26.1703 34.0674 28.9309 34.5185 31.2258C34.8112 32.7141 34.8592 34.0968 34.6529 35.2202C34.4321 36.4157 33.933 37.2654 33.2132 37.6831C32.8533 37.8944 32.4262 38 31.9511 38ZM22.7276 28.1771C24.2825 30.8657 26.2116 33.2998 28.016 34.8505C30.1803 36.7133 31.8983 37.1166 32.6421 36.6845C33.4148 36.238 33.981 34.4088 33.3956 31.4514C32.9637 29.2814 31.8743 26.6408 30.2427 23.8226C28.7118 21.1773 26.9507 18.9064 25.2854 17.4277C22.9532 15.3536 21.0624 14.8879 20.2898 15.3344C19.8963 15.5601 19.6036 16.1314 19.4644 16.938C19.306 17.8694 19.354 19.06 19.6132 20.3707C20.0738 22.728 21.1776 25.4982 22.7276 28.1771Z" fill="#00D8FF"/>
<defs>
<linearGradient id="paint0_linear_2001_103" x1="11.1254" y1="1" x2="48.4914" y2="9.89991" gradientUnits="userSpaceOnUse">
<stop stop-color="#04071D"/>
<stop offset="1" stop-color="#0C0E23"/>
</linearGradient>
<linearGradient id="paint1_linear_2001_103" x1="25.5474" y1="1" x2="25.5474" y2="50.0948" gradientUnits="userSpaceOnUse">
<stop stop-color="#66699C" stop-opacity="0.43"/>
<stop offset="1" stop-color="#363749" stop-opacity="0.49"/>
</linearGradient>
</defs>
</svg>
